<svg width="96" height="35" viewBox="0 0 96 35" fill="none" xmlns="http://www.w3.org/2000/svg">
<path id="Vector" d="M2.31373 25.6065C3.31572 26.2595 5.79743 28.2755 7.85987 30.0687C13.3115 34.8496 15.1354 35.6174 16.1386 33.5886C16.6466 32.5307 15.3684 30.4433 12.847 28.1447C12.2329 27.5971 11.6859 27.0315 11.665 26.9533C11.6441 26.8752 14.0279 27.451 16.9317 28.2225C26.3851 30.757 34.9859 31.7185 43.9228 31.2492C49.2824 30.9851 60.2 27.9735 65.5334 25.3282C74.8873 20.641 82.0128 15.4202 90.3054 7.03721C94.327 2.984 95.9403 1.08491 95.9051 0.549723C95.8278 -0.141826 95.6496 -0.135928 94.5839 0.317377C93.8774 0.632615 91.5741 2.50721 89.4365 4.4631C80.7523 12.3226 70.5798 18.6539 59.5606 23.0334C49.9994 26.8125 40.6176 27.9039 28.66 26.6275C24.5923 26.21 15.9522 24.2953 13.9082 23.377C13.0571 23.0187 13.0801 22.9707 14.3743 22.1627C16.4108 20.9042 16.9837 19.9546 16.6279 18.6254C15.9895 16.2408 11.9868 15.9316 5.6073 17.8938C1.91425 19.0099 1.27457 19.3072 0.624111 20.2358C0.0869486 21.0502 -0.0244994 21.7086 0.211901 22.8602C0.46708 24.2163 0.739506 24.5622 2.31373 25.6065Z" fill="#ECFFFC"/>
</svg>
